<?xml version="1.0" encoding="UTF-8" standalone="no"?>
<!-- Created with Inkscape (http://www.inkscape.org/) -->

<svg
   version="1.1"
   id="svg1"
   width="238.21124"
   height="100"
   viewBox="0 0 238.21123 100"
   sodipodi:docname="png-transparent-golang-hd-logo.png"
   inkscape:export-filename="../Desktop/coding/Facundovila03/DOCKER.svg"
   inkscape:export-xdpi="164.4295"
   inkscape:export-ydpi="164.4295"
   inkscape:version="1.4.3 (0d15f75, 2025-12-25)"
   inkscape:dataloss="true"
   xmlns:inkscape="http://www.inkscape.org/namespaces/inkscape"
   xmlns:sodipodi="http://sodipodi.sourceforge.net/DTD/sodipodi-0.dtd"
   xmlns="http://www.w3.org/2000/svg"
   xmlns:svg="http://www.w3.org/2000/svg">
  <defs
     id="defs1">
    <rect
       x="838.82715"
       y="136.10471"
       width="137.92429"
       height="42.214294"
       id="rect29" />
  </defs>
  <sodipodi:namedview
     id="namedview1"
     pagecolor="#ffffff"
     bordercolor="#000000"
     borderopacity="0.25"
     inkscape:showpageshadow="2"
     inkscape:pageopacity="0.0"
     inkscape:pagecheckerboard="0"
     inkscape:deskcolor="#d1d1d1"
     showguides="false"
     inkscape:zoom="0.49234904"
     inkscape:cx="268.10248"
     inkscape:cy="267.08694"
     inkscape:window-width="1728"
     inkscape:window-height="1056"
     inkscape:window-x="0"
     inkscape:window-y="33"
     inkscape:window-maximized="0"
     inkscape:current-layer="g1"
     inkscape:export-bgcolor="#ffffff00">
    <inkscape:page
       x="0"
       y="0"
       width="238.21123"
       height="100"
       id="page2"
       margin="0"
       bleed="0" />
  </sodipodi:namedview>
  <g
     inkscape:groupmode="layer"
     inkscape:label="Image"
     id="g1"
     transform="translate(-738.38627,-105.89966)">
    <g
       id="g28"
       inkscape:label="docker"
       transform="matrix(1.00296,0,0,1.00296,309.17865,-115.07579)"
       inkscape:export-filename="../Desktop/coding/Facundovila03/docker.svg"
       inkscape:export-xdpi="164.4295"
       inkscape:export-ydpi="164.4295">
      <rect
         style="opacity:1;fill:#1d63ed;fill-opacity:1;fill-rule:nonzero;stroke:none;stroke-width:0.217627;stroke-dasharray:none;stroke-opacity:1"
         id="rect28"
         width="237.50819"
         height="99.704872"
         x="427.94089"
         y="220.32329" />
      <g
         id="g29"
         transform="matrix(0.99704874,0,0,0.99704874,-306.95813,114.6149)">
        <path
           class="cls-1"
           d="m 522.53589,264.22255 c -2.11703,-1.42504 -7.67857,-2.03358 -11.72135,-0.94361 -0.21697,-4.02737 -2.29549,-7.42181 -6.09433,-10.3836 l -1.4058,-0.94362 -0.9372,1.41606 c -1.84228,2.79618 -2.619,6.52314 -2.34426,9.91116 0.21697,2.0875 0.94233,4.43306 2.34426,6.13542 -5.26241,3.05294 -10.11398,2.35967 -31.59757,2.35967 h -33.16899 c -0.0962,4.85159 0.68299,14.18245 6.61685,21.77887 0.65604,0.83962 1.3737,1.651 2.15426,2.43284 4.82463,4.83105 12.11421,8.37442 23.0139,8.38341 16.62944,0.0154 30.87608,-8.97397 39.5432,-30.70661 2.85139,0.0462 10.37976,0.51097 14.06434,-6.60786 0.0899,-0.1194 0.9372,-1.88723 0.9372,-1.88723 l -1.40451,-0.94361 z m -63.27862,-4.43563 h -9.32701 v 9.32702 h 9.32701 z m 12.04874,0 h -9.32702 v 9.32702 h 9.32702 z m 12.05001,0 H 474.029 v 9.32702 h 9.32702 z m 12.05001,0 h -9.32701 v 9.32702 h 9.32701 z m -48.19876,0 h -9.32701 v 9.32702 h 9.32701 z m 12.05,-11.7804 h -9.32701 v 9.32701 h 9.32701 z m 12.04874,0 h -9.32702 v 9.32701 h 9.32702 z m 12.05001,0 H 474.029 v 9.32701 h 9.32702 z m 0,-11.78169 H 474.029 v 9.32701 h 9.32702 z"
           id="path1-0"
           style="fill:#ffffff;fill-opacity:1;stroke-width:0px"
           transform="matrix(1.00296,0,0,1.00296,309.17865,-115.07579)" />
        <text
           xml:space="preserve"
           id="text28"
           style="font-style:normal;font-variant:normal;font-weight:normal;font-stretch:normal;font-size:32px;font-family:'FiraCode Nerd Font Mono';-inkscape-font-specification:'FiraCode Nerd Font Mono, Normal';font-variant-ligatures:normal;font-variant-caps:normal;font-variant-numeric:normal;font-variant-east-asian:normal;writing-mode:lr-tb;direction:ltr;white-space:pre;shape-inside:url(#rect29);opacity:1;fill:#ffffff;fill-opacity:1;fill-rule:nonzero;stroke:none;stroke-width:0.2;stroke-dasharray:none;stroke-opacity:1"
           transform="translate(8.0061591,3.2224609)"><tspan
             x="838.82812"
             y="164.10547"
             id="tspan1">DOCKER</tspan></text>
      </g>
    </g>
  </g>
</svg>
