<?xml version="1.0" encoding="UTF-8" standalone="no"?>
<!-- Created with Inkscape (http://www.inkscape.org/) -->

<svg
   version="1.1"
   id="svg1"
   width="200"
   height="100"
   viewBox="0 0 199.99999 100"
   sodipodi:docname="png-transparent-golang-hd-logo.png"
   xmlns:inkscape="http://www.inkscape.org/namespaces/inkscape"
   xmlns:sodipodi="http://sodipodi.sourceforge.net/DTD/sodipodi-0.dtd"
   xmlns="http://www.w3.org/2000/svg"
   xmlns:svg="http://www.w3.org/2000/svg">
  <defs
     id="defs1" />
  <sodipodi:namedview
     id="namedview1"
     pagecolor="#ffffff"
     bordercolor="#000000"
     borderopacity="0.25"
     inkscape:showpageshadow="2"
     inkscape:pageopacity="0.0"
     inkscape:pagecheckerboard="0"
     inkscape:deskcolor="#d1d1d1"
     showguides="false">
    <inkscape:page
       x="0"
       y="0"
       width="199.99998"
       height="100"
       id="page2"
       margin="0"
       bleed="0" />
  </sodipodi:namedview>
  <g
     inkscape:groupmode="layer"
     inkscape:label="Image"
     id="g1"
     transform="translate(-0.61047605,-0.45388031)">
    <rect
       style="fill:#53acd4;fill-opacity:1;fill-rule:nonzero"
       id="rect2"
       width="200"
       height="100"
       x="0.61047602"
       y="-100.45388"
       transform="scale(1,-1)" />
    <g
       id="g2"
       transform="matrix(0.28065567,0,0,0.28065567,-153.46942,-66.475923)"
       style="fill:#f2f2f2"
       inkscape:export-filename="g2.svg"
       inkscape:export-xdpi="147.29465"
       inkscape:export-ydpi="147.29465">
      <path
         style="fill:#f2f2f2;fill-opacity:1;fill-rule:nonzero;stroke-width:0.512455"
         d="m 1067.5359,533.10308 c -22.8089,-3.67727 -40.4681,-11.49689 -56.937,-25.21225 -12.44534,-10.36451 -23.90062,-26.9803 -28.48281,-41.31412 -0.81091,-2.53665 -1.56642,-4.61209 -1.6789,-4.61209 -0.11248,0 -1.50784,2.22918 -3.10079,4.95373 -7.04331,12.04671 -20.23654,27.59559 -31.0815,36.6311 -18.82934,15.68772 -39.67802,24.88959 -64.56933,28.4986 -11.63419,1.68685 -31.79838,1.06202 -41.67968,-1.29153 -20.20741,-4.81306 -35.5199,-13.3815 -50.23885,-28.11228 -8.22241,-8.22902 -13.08548,-14.58065 -17.54428,-22.91451 -5.2364,-9.78727 -9.31321,-23.23866 -10.84215,-35.77365 -1.14319,-9.37238 -0.45116,-26.82805 1.41249,-35.62842 6.86608,-32.42238 29.79138,-65.23257 59.10605,-84.59125 30.17311,-19.92559 71.855,-27.10495 103.86568,-17.89001 7.60556,2.18942 19.47459,7.81858 27.05749,12.83264 14.52035,9.60133 24.09576,20.55104 32.17575,36.79371 3.54378,7.12384 3.94253,9.06341 2.06942,10.06587 -1.80009,0.96338 -55.0635,14.4332 -57.07288,14.4332 -1.306,0 -2.57512,-1.0636 -5.18949,-4.34912 -4.02106,-5.05335 -6.38059,-6.979 -12.03061,-9.81845 -14.65642,-7.36565 -28.71908,-8.69595 -42.47318,-4.01788 -5.94168,2.02089 -9.43637,3.79011 -16.28833,8.24611 -19.5627,12.72208 -29.7224,31.87303 -29.7224,56.02647 0,19.35585 8.80274,34.43836 25.28885,43.32961 7.00658,3.77877 14.7413,5.54868 24.24848,5.54868 18.68652,0 33.52131,-7.55949 46.14365,-23.5138 l 5.98554,-7.56556 -30.50587,-0.34164 c -31.34059,-0.35099 -32.83523,-0.48841 -33.84186,-3.11163 -1.14823,-2.99225 -0.17931,-6.29192 5.45535,-18.57818 7.86243,-17.14388 10.33212,-21.75912 12.71794,-23.76665 l 2.00774,-1.6894 h 50.09301 50.09301 l 2.8807,-7.16761 c 7.01171,-17.4462 20.94786,-37.10503 35.48476,-50.05603 22.5212,-20.06424 50.8494,-31.25767 85.3478,-33.72372 26.0405,-1.86145 48.2103,3.73947 68.2108,17.23258 28.0769,18.94176 42.5652,45.17869 44.3418,80.29854 1.805,35.6834 -11.372,67.31866 -39.1387,93.96437 -19.2613,18.48365 -47.3897,32.21931 -73.3044,35.79604 -12.2268,1.68754 -29.1406,1.85928 -38.2633,0.38853 z m 35.7276,-57.75641 c 13.3008,-3.08465 26.9057,-10.98988 36.5471,-21.23591 8.2347,-8.75111 13.3436,-18.56832 15.8548,-30.46655 4.8622,-23.03753 -3.6322,-44.55581 -22.2946,-56.47714 -8.3249,-5.31789 -21.2587,-8.20649 -31.4555,-7.02516 -31.1056,3.60368 -52.7969,21.94318 -60.6576,51.28441 -7.9358,29.62198 10.3138,59.44367 39.2722,64.17487 2.812,0.45942 5.574,0.91977 6.1377,1.02301 2.3759,0.43512 12.6071,-0.35246 16.5959,-1.27753 z M 667.821,428.28698 c 0,-0.20129 1.25702,-2.54626 2.79337,-5.21103 1.76611,-3.06328 3.33658,-4.97684 4.27046,-5.20342 0.8124,-0.19711 15.15963,-0.27302 31.88275,-0.16871 l 30.40567,0.18967 -0.005,4.2418 c -0.003,2.33299 -0.3105,4.53201 -0.68327,4.88671 -0.70632,0.67207 -68.66347,1.92403 -68.66347,1.26498 z m -72.87152,-28.66669 c -0.42129,-0.68172 5.66001,-9.14627 7.49394,-10.43081 1.2652,-0.88618 10.50812,-1.01838 71.20078,-1.01838 48.99432,0 69.96621,0.21938 70.48414,0.7373 0.52756,0.52756 0.35325,2.03398 -0.61274,5.29537 -0.74252,2.50694 -1.6141,4.83651 -1.93685,5.17683 -0.70649,0.74497 -146.17006,0.98275 -146.62927,0.23969 z m 45.54058,-27.5237 c 0,-0.9998 6.46999,-10.01333 7.63533,-10.637 1.71134,-0.91589 111.25424,-0.8161 111.25424,0.10134 0,0.87481 -4.95303,8.25731 -6.24843,9.31329 -1.08908,0.8878 -112.64114,2.09835 -112.64114,1.22237 z"
         id="path2"
         inkscape:label="path2" />
    </g>
  </g>
</svg>
