<?xml version="1.0" encoding="UTF-8" standalone="no"?>
<!-- Created with Inkscape (http://www.inkscape.org/) -->

<svg
   version="1.1"
   id="svg1"
   width="200.20001"
   height="100.2"
   viewBox="0 0 200.2 100.2"
   sodipodi:docname="png-transparent-golang-hd-logo.png"
   inkscape:export-filename="../Desktop/coding/Facundovila03/DOCKER.svg"
   inkscape:export-xdpi="164.4295"
   inkscape:export-ydpi="164.4295"
   inkscape:version="1.4.3 (0d15f75, 2025-12-25)"
   inkscape:dataloss="true"
   xmlns:inkscape="http://www.inkscape.org/namespaces/inkscape"
   xmlns:sodipodi="http://sodipodi.sourceforge.net/DTD/sodipodi-0.dtd"
   xmlns="http://www.w3.org/2000/svg"
   xmlns:svg="http://www.w3.org/2000/svg">
  <defs
     id="defs1">
    <rect
       x="349.1225"
       y="142.79974"
       width="87.407677"
       height="44.212021"
       id="rect22" />
  </defs>
  <sodipodi:namedview
     id="namedview1"
     pagecolor="#ffffff"
     bordercolor="#000000"
     borderopacity="0.25"
     inkscape:showpageshadow="2"
     inkscape:pageopacity="0.0"
     inkscape:pagecheckerboard="0"
     inkscape:deskcolor="#d1d1d1"
     showguides="false"
     inkscape:zoom="0.49234904"
     inkscape:cx="268.10248"
     inkscape:cy="267.08694"
     inkscape:window-width="1728"
     inkscape:window-height="1056"
     inkscape:window-x="0"
     inkscape:window-y="33"
     inkscape:window-maximized="0"
     inkscape:current-layer="g1"
     inkscape:export-bgcolor="#ffffff00">
    <inkscape:page
       x="0"
       y="0"
       width="200.2"
       height="100.2"
       id="page2"
       margin="0"
       bleed="0" />
  </sodipodi:namedview>
  <g
     inkscape:groupmode="layer"
     inkscape:label="Image"
     id="g1"
     transform="translate(-235.69745,-104.58594)">
    <g
       id="g23"
       inkscape:label="git">
      <rect
         style="opacity:1;fill:#f05133;fill-opacity:1;fill-rule:nonzero;stroke:#f69987;stroke-width:0.2;stroke-dasharray:none;stroke-opacity:1"
         id="rect21"
         width="200"
         height="100"
         x="235.79745"
         y="104.68594" />
      <g
         id="g22"
         transform="translate(-1.5984664,-8.8180427)">
        <path
           fill="#f05133"
           d="M 337.8844,159.83312 301.89667,123.8498 c -2.07065,-2.07253 -5.43177,-2.07253 -7.50501,0 l -7.47246,7.47318 9.47857,9.47857 c 2.20353,-0.74399 4.72922,-0.24517 6.48488,1.51084 1.76477,1.76694 2.26004,4.31418 1.49738,6.5251 l 9.13566,9.13565 c 2.21019,-0.76164 4.76026,-0.26957 6.5251,1.4984 2.46738,2.46666 2.46738,6.46361 0,8.93092 -2.46774,2.4681 -6.4647,2.4681 -8.93381,0 -1.85527,-1.85672 -2.31416,-4.58266 -1.37447,-6.86852 l -8.52001,-8.52001 -7.2e-4,22.42026 c 0.60154,0.29779 1.16923,0.69523 1.67051,1.19434 2.46665,2.46636 2.46665,6.4626 0,8.93309 -2.46738,2.46629 -6.46615,2.46629 -8.93092,0 -2.46702,-2.47028 -2.46702,-6.46651 0,-8.93309 0.60968,-0.6086 1.31515,-1.06925 2.06789,-1.37802 V 152.6219 c -0.75311,-0.30746 -1.45774,-0.76468 -2.06833,-1.37816 -1.86865,-1.86721 -2.31871,-4.60979 -1.36036,-6.90448 l -9.34401,-9.34545 -24.67378,24.67306 c -2.07318,2.07412 -2.07318,5.43524 0,7.5079 l 35.98556,35.98339 c 2.0718,2.07253 5.43176,2.07253 7.50645,0 l 35.81917,-35.81338 c 2.07252,-2.07353 2.07252,-5.43567 0,-7.50862"
           id="path4-2"
           style="fill:#ffffff;fill-opacity:1;stroke-width:0.723444" />
        <text
           xml:space="preserve"
           id="text21"
           style="font-style:normal;font-variant:normal;font-weight:normal;font-stretch:normal;font-size:32px;font-family:'FiraCode Nerd Font Mono';-inkscape-font-specification:'FiraCode Nerd Font Mono, Normal';font-variant-ligatures:normal;font-variant-caps:normal;font-variant-numeric:normal;font-variant-east-asian:normal;writing-mode:lr-tb;direction:ltr;white-space:pre;shape-inside:url(#rect22);opacity:1;fill:#ffffff;fill-opacity:1;fill-rule:nonzero;stroke:#f69987;stroke-width:0.2;stroke-dasharray:none;stroke-opacity:1"
           transform="translate(10.671867,4.0117925)"><tspan
             x="349.12305"
             y="170.79883"
             id="tspan1">GIT</tspan></text>
      </g>
    </g>
  </g>
</svg>
