<?xml version="1.0" encoding="UTF-8" standalone="no"?>
<!-- Created with Inkscape (http://www.inkscape.org/) -->

<svg
   version="1.1"
   id="svg1"
   width="149.99998"
   height="100"
   viewBox="0 0 149.99998 100"
   sodipodi:docname="png-transparent-golang-hd-logo.png"
   inkscape:export-filename="../Desktop/coding/Facundovila03/DOCKER.svg"
   inkscape:export-xdpi="164.4295"
   inkscape:export-ydpi="164.4295"
   inkscape:version="1.4.3 (0d15f75, 2025-12-25)"
   inkscape:dataloss="true"
   xmlns:inkscape="http://www.inkscape.org/namespaces/inkscape"
   xmlns:sodipodi="http://sodipodi.sourceforge.net/DTD/sodipodi-0.dtd"
   xmlns="http://www.w3.org/2000/svg"
   xmlns:svg="http://www.w3.org/2000/svg">
  <defs
     id="defs1">
    <rect
       x="762.49603"
       y="31.9051"
       width="92.488937"
       height="46.961437"
       id="rect8" />
  </defs>
  <sodipodi:namedview
     id="namedview1"
     pagecolor="#ffffff"
     bordercolor="#000000"
     borderopacity="0.25"
     inkscape:showpageshadow="2"
     inkscape:pageopacity="0.0"
     inkscape:pagecheckerboard="0"
     inkscape:deskcolor="#d1d1d1"
     showguides="false"
     inkscape:zoom="0.49234904"
     inkscape:cx="268.10248"
     inkscape:cy="267.08694"
     inkscape:window-width="1728"
     inkscape:window-height="1056"
     inkscape:window-x="0"
     inkscape:window-y="33"
     inkscape:window-maximized="0"
     inkscape:current-layer="g1"
     inkscape:export-bgcolor="#ffffff00">
    <inkscape:page
       x="0"
       y="0"
       width="149.99998"
       height="100"
       id="page2"
       margin="0"
       bleed="0" />
  </sodipodi:namedview>
  <g
     inkscape:groupmode="layer"
     inkscape:label="Image"
     id="g1"
     transform="translate(-661.44533,-0.66596985)">
    <g
       id="g10"
       transform="matrix(0.88018217,0,0,1,54.273711,-1.3779321)"
       inkscape:label="html">
      <g
         id="g8"
         transform="matrix(0.63963314,0,0,0.63963314,261.0579,-18.837413)">
        <rect
           style="display:inline;fill:#e34f26;fill-opacity:1;fill-rule:nonzero;stroke-width:0.866025"
           id="rect7"
           width="150"
           height="100"
           x="661.44531"
           y="-100.66597"
           transform="matrix(1.7762189,0,0,-1.5633962,-504.53891,31.604593)" />
        <path
           fill="#e34f26"
           d="m 705.41997,141.96441 -6.26031,-70.237578 h 68.86337 l -6.26031,70.237578 -28.24772,7.9399"
           id="path1-4"
           style="fill:#ececec;stroke-width:0.15269" />
        <path
           fill="#ef652a"
           d="m 733.66769,143.7967 22.75087,-6.26031 5.34416,-60.160018 h -28.09503"
           id="path2-7"
           style="fill:#ececec;stroke-width:0.15269" />
        <path
           fill="#ebebeb"
           d="m 733.66769,103.48643 h -11.45178 l -0.76345,-8.856038 h 12.21523 v -8.55066 H 733.515 711.98565 l 0.15269,2.29035 2.13767,23.819698 h 19.39168 z m 0,22.44549 H 733.515 l -9.6195,-2.59574 -0.61076,-6.87106 h -4.58071 -3.96995 l 1.06883,13.58944 17.71209,4.88609 h 0.15269 z"
           id="path3"
           style="fill:#e34f26;fill-opacity:1;stroke-width:0.15269" />
        <path
           fill="#ffffff"
           d="m 733.515,103.48643 v 8.70335 h 10.68833 l -1.06884,11.1464 -9.61949,2.59574 v 9.00873 l 17.71209,-4.88609 0.15268,-1.52691 1.98498,-22.75086 0.30538,-2.29036 h -2.44304 z m 0,-17.406698 v 5.34416 3.2065 0 h 20.91858 v 0 0 l 0.15269,-1.83229 0.45808,-4.42802 0.15269,-2.29035 z"
           id="path4-7"
           style="fill:#e34f26;fill-opacity:1;stroke-width:0.15269" />
      </g>
      <text
         xml:space="preserve"
         id="text8"
         style="font-style:normal;font-variant:normal;font-weight:normal;font-stretch:normal;font-size:26.6667px;font-family:Sans;-inkscape-font-specification:'Sans, Normal';font-variant-ligatures:normal;font-variant-caps:normal;font-variant-numeric:normal;font-variant-east-asian:normal;writing-mode:lr-tb;direction:ltr;white-space:pre;shape-inside:url(#rect8);fill:#ececec;fill-opacity:1;fill-rule:nonzero"
         transform="translate(2.5093899,3.4462729)"><tspan
           x="762.49609"
           y="59.904297"
           id="tspan2"><tspan
             style="font-size:32px;font-family:'FiraCode Nerd Font Mono';-inkscape-font-specification:'FiraCode Nerd Font Mono, Normal'"
             id="tspan1">HTML</tspan></tspan></text>
    </g>
  </g>
</svg>
