<?xml version="1.0" encoding="UTF-8" standalone="no"?>
<!-- Created with Inkscape (http://www.inkscape.org/) -->

<svg
   version="1.1"
   id="svg1"
   width="245.1835"
   height="99.999992"
   viewBox="0 0 245.18349 99.999992"
   sodipodi:docname="png-transparent-golang-hd-logo.png"
   inkscape:export-filename="../Desktop/coding/Facundovila03/DOCKER.svg"
   inkscape:export-xdpi="164.4295"
   inkscape:export-ydpi="164.4295"
   inkscape:version="1.4.3 (0d15f75, 2025-12-25)"
   inkscape:dataloss="true"
   xmlns:inkscape="http://www.inkscape.org/namespaces/inkscape"
   xmlns:sodipodi="http://sodipodi.sourceforge.net/DTD/sodipodi-0.dtd"
   xmlns="http://www.w3.org/2000/svg"
   xmlns:svg="http://www.w3.org/2000/svg">
  <defs
     id="defs1">
    <rect
       x="300.14258"
       y="43.139755"
       width="133.01802"
       height="28.897375"
       id="rect4-1" />
  </defs>
  <sodipodi:namedview
     id="namedview1"
     pagecolor="#ffffff"
     bordercolor="#000000"
     borderopacity="0.25"
     inkscape:showpageshadow="2"
     inkscape:pageopacity="0.0"
     inkscape:pagecheckerboard="0"
     inkscape:deskcolor="#d1d1d1"
     showguides="false"
     inkscape:zoom="0.49234904"
     inkscape:cx="268.10248"
     inkscape:cy="267.08694"
     inkscape:window-width="1728"
     inkscape:window-height="1056"
     inkscape:window-x="0"
     inkscape:window-y="33"
     inkscape:window-maximized="0"
     inkscape:current-layer="g1"
     inkscape:export-bgcolor="#ffffff00">
    <inkscape:page
       x="0"
       y="0"
       width="245.18349"
       height="99.999992"
       id="page2"
       margin="0"
       bleed="0" />
  </sodipodi:namedview>
  <g
     inkscape:groupmode="layer"
     inkscape:label="Image"
     id="g1"
     transform="translate(-415.50697,-0.56613618)">
    <g
       id="g7"
       transform="matrix(1.00296,0,0,1.00296,309.17865,-115.07579)"
       inkscape:export-filename="../Desktop/coding/Facundovila03/g7.svg"
       inkscape:export-xdpi="147.29465"
       inkscape:export-ydpi="147.29465"
       inkscape:label="js">
      <rect
         style="fill:#f7df1e;fill-opacity:1;fill-rule:nonzero;stroke-width:1.1609"
         id="rect5"
         width="244.4599"
         height="99.704872"
         x="106.01453"
         y="115.30064" />
      <g
         id="g27"
         transform="translate(3.8673813)">
        <rect
           width="52.39024"
           height="52.39024"
           fill="#f7df1e"
           id="rect1"
           x="100.60278"
           y="127.62852"
           style="display:inline;fill:#1a1a1a;stroke-width:0.0831594"
           transform="matrix(0.92356297,0,0,1,19.258595,11.329434)"
           ry="0" />
        <path
           d="m 135.79571,168.5586 c 1.0553,1.72306 2.42825,2.98957 4.8565,2.98957 2.03989,0 3.343,-1.01953 3.343,-2.42824 0,-1.68813 -1.33887,-2.28605 -3.58416,-3.26816 l -1.23076,-0.52806 c -3.55256,-1.51349 -5.91261,-3.40952 -5.91261,-7.41779 0,-3.69227 2.81327,-6.50304 7.20989,-6.50304 3.13011,0 5.3804,1.08938 7.002,3.94174 l -3.83363,2.46151 c -0.84407,-1.5135 -1.75466,-2.10975 -3.16837,-2.10975 -1.44198,0 -2.3559,0.91475 -2.3559,2.10975 0,1.4769 0.91476,2.07482 3.027,2.98957 l 1.23075,0.52723 c 4.1829,1.79374 6.54463,3.62241 6.54463,7.73379 0,4.43239 -3.48188,6.86063 -8.15792,6.86063 -4.57209,0 -7.52589,-2.17877 -8.9712,-5.03445 z m -17.39106,0.42661 c 0.77338,1.37212 1.47691,2.53219 3.16836,2.53219 1.61745,0 2.63781,-0.63284 2.63781,-3.09352 v -16.73992 h 4.92302 v 16.80645 c 0,5.09765 -2.98874,7.41779 -7.35126,7.41779 -3.94175,0 -6.22447,-2.03989 -7.38537,-4.49683 z"
           id="path1"
           style="fill:#f7df1e;fill-opacity:1;stroke-width:0.0831594"
           inkscape:label="path1"
           transform="matrix(0.92356297,0,0,1,19.258595,11.329434)" />
        <text
           xml:space="preserve"
           id="text3-1"
           style="font-style:normal;font-variant:normal;font-weight:normal;font-stretch:normal;font-size:12px;font-family:'FiraCode Nerd Font Mono';-inkscape-font-specification:'FiraCode Nerd Font Mono, Normal';font-variant-ligatures:normal;font-variant-caps:normal;font-variant-numeric:normal;font-variant-east-asian:normal;writing-mode:lr-tb;direction:ltr;white-space:pre;shape-inside:url(#rect4-1);fill:#1a1a1a;fill-opacity:1;fill-rule:nonzero"
           transform="matrix(1.2226298,0,0,1.2971913,-189.70891,94.375617)"><tspan
             x="300.14258"
             y="62.459038"
             id="tspan3"><tspan
               style="font-size:21.1748px;font-family:Sans;-inkscape-font-specification:'Sans, Normal'"
               id="tspan1">JAVASCRIPT</tspan></tspan></text>
      </g>
    </g>
  </g>
</svg>
