<?xml version="1.0" encoding="UTF-8" standalone="no"?>
<!-- Created with Inkscape (http://www.inkscape.org/) -->

<svg
   version="1.1"
   id="svg1"
   width="200"
   height="100"
   viewBox="0 0 199.99999 100"
   sodipodi:docname="png-transparent-golang-hd-logo.png"
   inkscape:export-filename="../Desktop/coding/Facundovila03/DOCKER.svg"
   inkscape:export-xdpi="164.4295"
   inkscape:export-ydpi="164.4295"
   inkscape:version="1.4.3 (0d15f75, 2025-12-25)"
   inkscape:dataloss="true"
   xmlns:inkscape="http://www.inkscape.org/namespaces/inkscape"
   xmlns:sodipodi="http://sodipodi.sourceforge.net/DTD/sodipodi-0.dtd"
   xmlns="http://www.w3.org/2000/svg"
   xmlns:svg="http://www.w3.org/2000/svg">
  <defs
     id="defs1">
    <rect
       x="300.14258"
       y="43.139755"
       width="205.2963"
       height="36.102776"
       id="rect4" />
  </defs>
  <sodipodi:namedview
     id="namedview1"
     pagecolor="#ffffff"
     bordercolor="#000000"
     borderopacity="0.25"
     inkscape:showpageshadow="2"
     inkscape:pageopacity="0.0"
     inkscape:pagecheckerboard="0"
     inkscape:deskcolor="#d1d1d1"
     showguides="false"
     inkscape:zoom="0.49234904"
     inkscape:cx="268.10248"
     inkscape:cy="267.08694"
     inkscape:window-width="1728"
     inkscape:window-height="1056"
     inkscape:window-x="0"
     inkscape:window-y="33"
     inkscape:window-maximized="0"
     inkscape:current-layer="g1"
     inkscape:export-bgcolor="#ffffff00">
    <inkscape:page
       x="0"
       y="0"
       width="199.99998"
       height="100"
       id="page2"
       margin="0"
       bleed="0" />
  </sodipodi:namedview>
  <g
     inkscape:groupmode="layer"
     inkscape:label="Image"
     id="g1"
     transform="translate(-204.6844,-0.61191088)">
    <g
       id="g4"
       transform="matrix(1.2226298,0,0,1.2971913,-74.151267,-24.773099)"
       inkscape:export-filename="../Desktop/coding/Facundovila03/g4.svg"
       inkscape:export-xdpi="147.29465"
       inkscape:export-ydpi="147.29465"
       inkscape:label="python">
      <g
         id="g5"
         transform="translate(-3.3573392,2.0381275)">
        <g
           id="g9">
          <rect
             style="fill:#46719f;fill-opacity:1;fill-rule:nonzero"
             id="rect3"
             width="200"
             height="100"
             x="204.68439"
             y="0.61191136"
             transform="matrix(0.81790907,0,0,0.77089632,64.006333,17.059363)" />
          <path
             fill="url(#SVGID_1_)"
             d="m 262.24614,33.507205 c -10.65694,0 -10.77142,4.136638 -10.77142,4.988094 0,1.291745 0,5.167821 0,5.167821 h 10.97659 v 1.551489 c 0,0 -11.42878,0 -15.33646,0 -3.26178,0 -7.36067,1.983175 -7.36067,10.771424 0,8.072616 3.19737,11.194484 6.42428,11.194484 0.95815,0 3.83421,0 3.83421,0 0,0 0,-4.006972 0,-5.385709 0,-2.253182 1.11654,-6.424284 6.3217,-6.424284 6.52851,0 8.1949,0 10.88673,0 1.60115,0 6.11653,-0.695934 6.11653,-5.911356 0,-5.519891 0,-7.340982 0,-9.938019 4.1e-4,-1.293803 -0.22077,-6.013944 -11.09149,-6.013944 z m -6.05251,3.475168 c 1.09233,0 1.97496,0.882235 1.97496,1.974965 0,1.091915 -0.88263,1.974966 -1.97496,1.974966 -1.09233,0 -1.97497,-0.882639 -1.97497,-1.974966 0,-1.09273 0.88264,-1.974965 1.97497,-1.974965 z"
             id="path2-4"
             style="fill:#ececec;stroke-width:0.41034" />
          <path
             fill="url(#SVGID_2_)"
             d="m 262.3996,78.644594 c 10.65202,0 10.78456,-4.214598 10.78456,-4.988095 0,-1.291751 0,-5.16782 0,-5.16782 h -10.98973 v -1.551496 c 0,0 11.50266,0 15.33646,0 3.28642,0 7.36067,-2.032822 7.36067,-10.771418 0,-9.569948 -4.32416,-11.194483 -6.42428,-11.194483 -0.95855,0 -3.83421,0 -3.83421,0 0,0 0,4.19203 0,5.385709 0,2.253175 -1.0796,6.424284 -6.3217,6.424284 -6.52851,0 -7.99178,0 -10.88714,0 -1.59703,0 -6.11652,0.777999 -6.11652,5.911356 0,5.939669 0,7.494857 0,9.938019 0,2.146077 1.31145,6.013944 11.09189,6.013944 z m 6.05293,-3.475168 c -1.09232,0 -1.97497,-0.882639 -1.97497,-1.974965 0,-1.092327 0.88224,-1.974966 1.97497,-1.974966 1.09191,0 1.97497,0.882639 1.97497,1.974966 0,1.092326 -0.88306,1.974965 -1.97497,1.974965 z"
             id="path4"
             style="fill:#ececec;stroke-width:0.41034" />
        </g>
        <text
           xml:space="preserve"
           id="text3"
           style="writing-mode:lr-tb;direction:ltr;white-space:pre;shape-inside:url(#rect4);fill:#ececec;fill-opacity:1;fill-rule:nonzero"
           transform="translate(-9.7905832,-1.5297787)"><tspan
             x="300.14258"
             y="66.473988"
             id="tspan2"><tspan
               style="font-size:26.6667px;font-family:'FiraCode Nerd Font Mono';-inkscape-font-specification:'FiraCode Nerd Font Mono, Normal'"
               id="tspan1">PYTHON</tspan></tspan></text>
      </g>
    </g>
  </g>
</svg>
